<svg id="Layer_1" data-name="Layer 1" xmlns="http://www.w3.org/2000/svg" viewBox="0 0 47 47"><defs><style>.cls-1{fill:#fff;}</style></defs><title>postRegistration_success_W_devoluteIcons</title><path class="cls-1" d="M23.5,47A23.5,23.5,0,1,1,47,23.49,23.47,23.47,0,0,1,23.5,47Zm0-45A21.5,21.5,0,1,0,45,23.49,21.47,21.47,0,0,0,23.5,2Z"/><path class="cls-1" d="M34.58,14.79a1.46,1.46,0,0,0-1,.44L20.17,28.66l-6.75-6.77a1.46,1.46,0,1,0-2.09,2l0,0,7.78,7.8a1.46,1.46,0,0,0,2.06,0h0L35.64,17.28a1.46,1.46,0,0,0-1.06-2.5Z"/></svg>