<svg id="Layer_1" data-name="Layer 1" xmlns="http://www.w3.org/2000/svg" viewBox="0 0 47 47"><defs><style>.cls-1{fill:#fff;}</style></defs><title>postRegistration_info_SQ_W_devoluteIcons</title><path class="cls-1" d="M23.41,8.07a1.07,1.07,0,0,0-1,1.09v3.21a1.07,1.07,0,0,0,2.14,0s0,0,0,0V9.16a1.07,1.07,0,0,0-1-1.09Z"/><path class="cls-1" d="M18.62,16.11a1.07,1.07,0,1,0,.1,2.14h3.74v15H18.62a1.07,1.07,0,1,0,.1,2.14h9.62a1.07,1.07,0,1,0,0-2.14H24.59v-16a1.07,1.07,0,0,0-1.07-1.07H18.62Z"/><path class="cls-1" d="M45,2V45H2V2H45m2-2H0V47H47V0Z"/></svg>