<svg xmlns="http://www.w3.org/2000/svg" viewBox="0 0 47 47"><defs><style>.cls-1,.cls-2{fill:#fff;}.cls-2{stroke:#fff;stroke-miterlimit:10;}</style></defs><title>postRegistration_error_W_devoluteIcons</title><path class="cls-1" d="M23.5,47A23.5,23.5,0,1,1,47,23.5,23.47,23.47,0,0,1,23.5,47Zm0-45A21.5,21.5,0,1,0,45,23.5,21.47,21.47,0,0,0,23.5,2Z"/><path class="cls-2" d="M32.28,14.72a.9.9,0,0,0-1.27,0l-7.5,7.5L16,14.73A.9.9,0,1,0,14.73,16l7.49,7.49L14.73,31a.9.9,0,0,0,0,1.27.86.86,0,0,0,.63.27.93.93,0,0,0,.64-.26l7.49-7.5L31,32.27a.9.9,0,0,0,.64.27.93.93,0,0,0,.64-.26.9.9,0,0,0,0-1.27l-7.5-7.5L32.27,16A.9.9,0,0,0,32.28,14.72Z"/></svg>