<?xml version="1.0" encoding="utf-8"?>
<!-- Generator: Adobe Illustrator 19.1.0, SVG Export Plug-In . SVG Version: 6.00 Build 0)  -->
<svg version="1.1" xmlns="http://www.w3.org/2000/svg" xmlns:xlink="http://www.w3.org/1999/xlink" x="0px" y="0px"
	 viewBox="0 0 64 64" enable-background="new 0 0 64 64" xml:space="preserve">
<g id="Guides" display="none">
	<g id="guides" display="inline">
	</g>
</g>
<g id="Test_BG" display="none">

		<image overflow="visible" width="3505" height="2158" id="Form" xlink:href="13D99F53.png"  transform="matrix(0.24 0 0 0.24 -210.0097 -40.7754)">
	</image>
	<g id="Foto">

			<image display="inline" overflow="visible" width="841" height="505" id="R5P3n2" xlink:href="13D99F51.jpg"  transform="matrix(1 0 0 1 -210.0097 -28)">
		</image>
	</g>
	<rect id="Magenta" x="-209.6" y="-40.8" fill="#E20074" width="840.6" height="517.9"/>
	<rect id="Schwarz_1_" x="-209.6" y="-40.8" display="inline" width="840.6" height="517.9"/>
	<rect id="Dunkelgrau__x28_38_x29__1_" x="-209.6" y="-40.8" fill="#262626" width="840.6" height="517.9"/>
	<rect id="Dunkelgrau__x28_56_x29__1_" x="-209.6" y="-40.8" fill="#383838" width="840.6" height="517.9"/>
	<rect id="Dunkelgrau__x28_75_x29__selten_verwendet_1_" x="-209.6" y="-40.8" fill="#4B4B4B" width="840.6" height="517.9"/>
	<rect id="Hellgrau__x28_237_x29__1_" x="-209.6" y="-40.8" fill="#EDEDED" width="840.6" height="517.9"/>
</g>
<g id="Legend" display="none">
</g>
<g id="Asset" display="none">
	<g display="inline">
		<path fill="#A4A4A4" d="M63,1v62H1V1H63 M64,0H0v64h64V0L64,0z"/>
	</g>
</g>
<g id="Icons">
	<path fill="#E20074" d="M54.5,42.5c0,0.4-0.1,0.8-0.4,1.1c-0.6,0.6-1.5,0.6-2.1,0L32,23.6L12.1,43.6c-0.6,0.6-1.5,0.6-2.1,0
		c-0.6-0.6-0.6-1.5,0-2.1l21-21c0.6-0.6,1.5-0.6,2.1,0l21,21C54.4,41.7,54.5,42.1,54.5,42.5z"/>
	<g>
		<rect fill="none" width="64" height="64"/>
	</g>
</g>
</svg>
