<svg xmlns="http://www.w3.org/2000/svg" width="64" height="64" viewBox="0 0 64 64">
  <defs>
    <style>
      .a {
        fill: none;
      }
    </style>
  </defs>
  <title>help_outline</title>
  <rect class="a" width="64" height="64"/>
  <path d="M56,6H8A2,2,0,0,0,6,8V56a2,2,0,0,0,2,2H56a2,2,0,0,0,2-2V8A2,2,0,0,0,56,6ZM55,55H9V9H55ZM30,47h4.37V42.32H30ZM28,22.76q1.08-3.32,4.13-3.32a3.78,3.78,0,0,1,3.05,1.36,5.45,5.45,0,0,1,1.21,3.65,7.2,7.2,0,0,1-.48,2.61,11.82,11.82,0,0,1-2,3.12Q33,31.31,32.39,32.1a8.68,8.68,0,0,0-1.19,2.22,12.74,12.74,0,0,0-.64,4.35q0,.26,0,.92h3.25a21.48,21.48,0,0,1,.11-2.4,7.64,7.64,0,0,1,1.82-4.26q2-2.31,2.53-3.06a9.56,9.56,0,0,0,1.76-5.62,8,8,0,0,0-1.85-5.38,7.43,7.43,0,0,0-6-2.57,7.1,7.1,0,0,0-6.88,4.22A12.6,12.6,0,0,0,24.3,25.8h3.27A12.5,12.5,0,0,1,28,22.76Z"/>
</svg>
