<svg xmlns="http://www.w3.org/2000/svg" width="64" height="64" viewBox="0 0 64 64">
  <defs>
    <style>
      .a {
        fill: none;
      }
    </style>
  </defs>
  <title>settings_outline</title>
  <rect class="a" width="64" height="64"/>
  <path d="M52,32a20.11,20.11,0,0,0-.33-3.55l6.78-5.64a28,28,0,0,0-5.26-9.11l-8.27,3a20,20,0,0,0-6.16-3.55l-1.5-8.7a27.91,27.91,0,0,0-10.52,0l-1.5,8.69a19.94,19.94,0,0,0-6.16,3.55l-8.27-3A27.92,27.92,0,0,0,5.55,22.8l6.78,5.64a19.17,19.17,0,0,0,0,7.1L5.55,41.2a28,28,0,0,0,5.26,9.11l8.27-3a20,20,0,0,0,6.16,3.55l1.5,8.69a27.91,27.91,0,0,0,10.52,0l1.5-8.69a19.92,19.92,0,0,0,6.16-3.55l8.27,3a27.92,27.92,0,0,0,5.26-9.11l-6.78-5.64A20.13,20.13,0,0,0,52,32Zm2.86,10.12a24.69,24.69,0,0,1-2.67,4.62L46,44.44l-1.64-.6L43,45a16.88,16.88,0,0,1-5.23,3l-1.64.59-.3,1.72-1.13,6.56a24.66,24.66,0,0,1-5.34,0L28.2,50.3l-.3-1.72L26.26,48A16.92,16.92,0,0,1,21,45l-1.34-1.13-1.64.6-6.24,2.3a24.79,24.79,0,0,1-2.68-4.62l5.11-4.26,1.34-1.12L15.29,35a16.18,16.18,0,0,1,0-6l.31-1.72-1.34-1.12L9.14,21.88a24.78,24.78,0,0,1,2.68-4.62l6.24,2.3,1.64.6L21,19a16.92,16.92,0,0,1,5.23-3l1.64-.59.3-1.72,1.13-6.56A25.24,25.24,0,0,1,32,7a25,25,0,0,1,2.67.14l1.13,6.56.3,1.72,1.64.59A16.89,16.89,0,0,1,43,19l1.33,1.13,1.64-.6,6.24-2.3a24.73,24.73,0,0,1,2.67,4.62l-5.11,4.26-1.34,1.12L48.72,29a16.09,16.09,0,0,1,0,6.05l-.31,1.72,1.34,1.12ZM32,19.49A12.52,12.52,0,1,0,44.52,32,12.52,12.52,0,0,0,32,19.49Zm0,22A9.52,9.52,0,1,1,41.52,32,9.53,9.53,0,0,1,32,41.52Z"/>
</svg>
