<svg xmlns="http://www.w3.org/2000/svg" width="64" height="64" viewBox="0 0 64 64">
  <defs>
    <style>
      .a {
        fill: none;
      }
    </style>
  </defs>
  <title>user-account_outline</title>
  <rect class="a" width="64" height="64"/>
  <path fill="#e20074" d="M6,58V53.91A10.87,10.87,0,0,1,16.83,43h30.3A10.87,10.87,0,0,1,58,53.87V58H55V53.91A7.88,7.88,0,0,0,47.15,46H16.87A7.88,7.88,0,0,0,9,53.89V58ZM20,27V18A12.15,12.15,0,0,1,32,6,12.2,12.2,0,0,1,44,18v9A12.2,12.2,0,0,1,32,39,12.15,12.15,0,0,1,20,27Zm3,0a9,9,0,0,0,18,0V18a9,9,0,1,0-18,0Z"/>
</svg>
